<mxfile host="app.diagrams.net" agent="Mozilla/5.0 (Windows NT 10.0; Win64; x64) AppleWebKit/537.36 (KHTML, like Gecko) Chrome/139.0.0.0 Safari/537.36" version="28.1.0">
  <diagram name="Page-1" id="nePGHPv4rIZrpmW9tdRf">
    <mxGraphModel dx="4916" dy="2832" grid="1" gridSize="10" guides="1" tooltips="1" connect="1" arrows="1" fold="1" page="1" pageScale="1" pageWidth="850" pageHeight="1100" math="0" shadow="0">
      <root>
        <mxCell id="0" />
        <mxCell id="1" parent="0" />
        <mxCell id="qGfshK4993wqcHGZQ2OQ-21" value="&lt;span style=&quot;text-wrap-mode: nowrap;&quot;&gt;Red Social de Blissard&amp;nbsp;&lt;/span&gt;" style="swimlane;fontStyle=1;align=center;verticalAlign=top;childLayout=stackLayout;horizontal=1;startSize=26;horizontalStack=0;resizeParent=1;resizeParentMax=0;resizeLast=0;collapsible=1;marginBottom=0;whiteSpace=wrap;html=1;labelBackgroundColor=none;fillColor=#B2C9AB;strokeColor=#788AA3;fontColor=#46495D;" parent="1" vertex="1">
          <mxGeometry x="360" y="40" width="160" height="130" as="geometry" />
        </mxCell>
        <mxCell id="qGfshK4993wqcHGZQ2OQ-22" value="Usuario&lt;div&gt;ContraseÃ±a&lt;/div&gt;" style="text;strokeColor=none;fillColor=none;align=left;verticalAlign=top;spacingLeft=4;spacingRight=4;overflow=hidden;rotatable=0;points=[[0,0.5],[1,0.5]];portConstraint=eastwest;whiteSpace=wrap;html=1;labelBackgroundColor=none;fontColor=#46495D;" parent="qGfshK4993wqcHGZQ2OQ-21" vertex="1">
          <mxGeometry y="26" width="160" height="44" as="geometry" />
        </mxCell>
        <mxCell id="qGfshK4993wqcHGZQ2OQ-23" value="" style="line;strokeWidth=1;fillColor=none;align=left;verticalAlign=middle;spacingTop=-1;spacingLeft=3;spacingRight=3;rotatable=0;labelPosition=right;points=[];portConstraint=eastwest;strokeColor=#788AA3;labelBackgroundColor=none;fontColor=#46495D;" parent="qGfshK4993wqcHGZQ2OQ-21" vertex="1">
          <mxGeometry y="70" width="160" height="8" as="geometry" />
        </mxCell>
        <mxCell id="qGfshK4993wqcHGZQ2OQ-24" value="&lt;div&gt;Registrarse (usu, contra)&lt;/div&gt;&lt;div&gt;Perfil()&lt;/div&gt;&lt;div&gt;Juegos()&lt;/div&gt;&lt;div&gt;&lt;br&gt;&lt;/div&gt;" style="text;strokeColor=none;fillColor=none;align=left;verticalAlign=top;spacingLeft=4;spacingRight=4;overflow=hidden;rotatable=0;points=[[0,0.5],[1,0.5]];portConstraint=eastwest;whiteSpace=wrap;html=1;labelBackgroundColor=none;fontColor=#46495D;" parent="qGfshK4993wqcHGZQ2OQ-21" vertex="1">
          <mxGeometry y="78" width="160" height="52" as="geometry" />
        </mxCell>
        <mxCell id="qGfshK4993wqcHGZQ2OQ-25" value="Perfil" style="swimlane;fontStyle=1;align=center;verticalAlign=top;childLayout=stackLayout;horizontal=1;startSize=26;horizontalStack=0;resizeParent=1;resizeParentMax=0;resizeLast=0;collapsible=1;marginBottom=0;whiteSpace=wrap;html=1;labelBackgroundColor=none;fillColor=#B2C9AB;strokeColor=#788AA3;fontColor=#46495D;" parent="1" vertex="1">
          <mxGeometry x="330" y="220" width="230" height="230" as="geometry" />
        </mxCell>
        <mxCell id="qGfshK4993wqcHGZQ2OQ-26" value="Nombre de amigos&lt;div&gt;Nombre de juego&lt;/div&gt;&lt;div&gt;IDE de amigos&lt;/div&gt;&lt;div&gt;&lt;br&gt;&lt;/div&gt;" style="text;strokeColor=none;fillColor=none;align=left;verticalAlign=top;spacingLeft=4;spacingRight=4;overflow=hidden;rotatable=0;points=[[0,0.5],[1,0.5]];portConstraint=eastwest;whiteSpace=wrap;html=1;labelBackgroundColor=none;fontColor=#46495D;" parent="qGfshK4993wqcHGZQ2OQ-25" vertex="1">
          <mxGeometry y="26" width="230" height="54" as="geometry" />
        </mxCell>
        <mxCell id="qGfshK4993wqcHGZQ2OQ-27" value="" style="line;strokeWidth=1;fillColor=none;align=left;verticalAlign=middle;spacingTop=-1;spacingLeft=3;spacingRight=3;rotatable=0;labelPosition=right;points=[];portConstraint=eastwest;strokeColor=#788AA3;labelBackgroundColor=none;fontColor=#46495D;" parent="qGfshK4993wqcHGZQ2OQ-25" vertex="1">
          <mxGeometry y="80" width="230" height="8" as="geometry" />
        </mxCell>
        <mxCell id="qGfshK4993wqcHGZQ2OQ-28" value="agregarAmigoPorNombre(friendname)&lt;div&gt;agregarAmigoPorIDE(ide)&lt;/div&gt;&lt;div&gt;buscarAmigoPorIDE(ide)&lt;/div&gt;&lt;div&gt;buscarAmigoPorNombre(friendname)&lt;/div&gt;&lt;div&gt;verJuegosFavoritos()&lt;/div&gt;&lt;div&gt;listaDeAmigos()&lt;/div&gt;&lt;div&gt;amigosEnLinea()&lt;/div&gt;&lt;div&gt;enviarMensajeAmigos()&lt;/div&gt;&lt;div&gt;estadisticas()&lt;/div&gt;" style="text;strokeColor=none;fillColor=none;align=left;verticalAlign=top;spacingLeft=4;spacingRight=4;overflow=hidden;rotatable=0;points=[[0,0.5],[1,0.5]];portConstraint=eastwest;whiteSpace=wrap;html=1;labelBackgroundColor=none;fontColor=#46495D;" parent="qGfshK4993wqcHGZQ2OQ-25" vertex="1">
          <mxGeometry y="88" width="230" height="142" as="geometry" />
        </mxCell>
        <mxCell id="qGfshK4993wqcHGZQ2OQ-31" value="" style="shape=crossbar;whiteSpace=wrap;html=1;rounded=1;direction=south;fillColor=#B2C9AB;strokeColor=#788AA3;fontColor=#46495D;labelBackgroundColor=none;" parent="1" vertex="1">
          <mxGeometry x="435" y="170" width="20" height="50" as="geometry" />
        </mxCell>
        <mxCell id="qGfshK4993wqcHGZQ2OQ-33" value="Juegos" style="swimlane;fontStyle=1;align=center;verticalAlign=top;childLayout=stackLayout;horizontal=1;startSize=26;horizontalStack=0;resizeParent=1;resizeParentMax=0;resizeLast=0;collapsible=1;marginBottom=0;whiteSpace=wrap;html=1;labelBackgroundColor=none;fillColor=#B2C9AB;strokeColor=#788AA3;fontColor=#46495D;" parent="1" vertex="1">
          <mxGeometry x="160" y="160" width="160" height="180" as="geometry" />
        </mxCell>
        <mxCell id="qGfshK4993wqcHGZQ2OQ-34" value="Nombre de juego&lt;div&gt;Horas jugadas&lt;/div&gt;&lt;div&gt;Logros&lt;/div&gt;&lt;div&gt;Derrotas&lt;/div&gt;&lt;div&gt;&lt;br&gt;&lt;/div&gt;&lt;div&gt;&lt;br&gt;&lt;/div&gt;" style="text;strokeColor=none;fillColor=none;align=left;verticalAlign=top;spacingLeft=4;spacingRight=4;overflow=hidden;rotatable=0;points=[[0,0.5],[1,0.5]];portConstraint=eastwest;whiteSpace=wrap;html=1;labelBackgroundColor=none;fontColor=#46495D;" parent="qGfshK4993wqcHGZQ2OQ-33" vertex="1">
          <mxGeometry y="26" width="160" height="64" as="geometry" />
        </mxCell>
        <mxCell id="qGfshK4993wqcHGZQ2OQ-35" value="" style="line;strokeWidth=1;fillColor=none;align=left;verticalAlign=middle;spacingTop=-1;spacingLeft=3;spacingRight=3;rotatable=0;labelPosition=right;points=[];portConstraint=eastwest;strokeColor=#788AA3;labelBackgroundColor=none;fontColor=#46495D;" parent="qGfshK4993wqcHGZQ2OQ-33" vertex="1">
          <mxGeometry y="90" width="160" height="8" as="geometry" />
        </mxCell>
        <mxCell id="qGfshK4993wqcHGZQ2OQ-36" value="juegosCompletados()&lt;div&gt;Trofeos()&lt;/div&gt;&lt;div&gt;buscarJuego()&lt;/div&gt;&lt;div&gt;listaDeJuegos()&lt;/div&gt;&lt;div&gt;juegosRecomentados()&lt;/div&gt;&lt;div&gt;&lt;br&gt;&lt;/div&gt;" style="text;strokeColor=none;fillColor=none;align=left;verticalAlign=top;spacingLeft=4;spacingRight=4;overflow=hidden;rotatable=0;points=[[0,0.5],[1,0.5]];portConstraint=eastwest;whiteSpace=wrap;html=1;labelBackgroundColor=none;fontColor=#46495D;" parent="qGfshK4993wqcHGZQ2OQ-33" vertex="1">
          <mxGeometry y="98" width="160" height="82" as="geometry" />
        </mxCell>
        <mxCell id="qGfshK4993wqcHGZQ2OQ-44" value="" style="shape=partialRectangle;whiteSpace=wrap;html=1;bottom=0;right=0;fillColor=none;labelBackgroundColor=none;strokeColor=#788AA3;fontColor=#46495D;" parent="1" vertex="1">
          <mxGeometry x="240" y="100" width="120" height="60" as="geometry" />
        </mxCell>
        <mxCell id="qGfshK4993wqcHGZQ2OQ-46" value="Lista de amigos" style="swimlane;fontStyle=1;align=center;verticalAlign=top;childLayout=stackLayout;horizontal=1;startSize=26;horizontalStack=0;resizeParent=1;resizeParentMax=0;resizeLast=0;collapsible=1;marginBottom=0;whiteSpace=wrap;html=1;labelBackgroundColor=none;fillColor=#B2C9AB;strokeColor=#788AA3;fontColor=#46495D;" parent="1" vertex="1">
          <mxGeometry x="600" y="370" width="160" height="110" as="geometry" />
        </mxCell>
        <mxCell id="qGfshK4993wqcHGZQ2OQ-47" value="Nombre de amigo&lt;div&gt;Perfil de amigo&lt;/div&gt;&lt;div&gt;&lt;br&gt;&lt;/div&gt;&lt;div&gt;&lt;br&gt;&lt;/div&gt;" style="text;strokeColor=none;fillColor=none;align=left;verticalAlign=top;spacingLeft=4;spacingRight=4;overflow=hidden;rotatable=0;points=[[0,0.5],[1,0.5]];portConstraint=eastwest;whiteSpace=wrap;html=1;labelBackgroundColor=none;fontColor=#46495D;" parent="qGfshK4993wqcHGZQ2OQ-46" vertex="1">
          <mxGeometry y="26" width="160" height="34" as="geometry" />
        </mxCell>
        <mxCell id="qGfshK4993wqcHGZQ2OQ-48" value="" style="line;strokeWidth=1;fillColor=none;align=left;verticalAlign=middle;spacingTop=-1;spacingLeft=3;spacingRight=3;rotatable=0;labelPosition=right;points=[];portConstraint=eastwest;strokeColor=#788AA3;labelBackgroundColor=none;fontColor=#46495D;" parent="qGfshK4993wqcHGZQ2OQ-46" vertex="1">
          <mxGeometry y="60" width="160" height="8" as="geometry" />
        </mxCell>
        <mxCell id="qGfshK4993wqcHGZQ2OQ-49" value="enviarMensaje()&lt;div&gt;jugarConAmigo()&lt;/div&gt;&lt;div&gt;&lt;br&gt;&lt;/div&gt;" style="text;strokeColor=none;fillColor=none;align=left;verticalAlign=top;spacingLeft=4;spacingRight=4;overflow=hidden;rotatable=0;points=[[0,0.5],[1,0.5]];portConstraint=eastwest;whiteSpace=wrap;html=1;labelBackgroundColor=none;fontColor=#46495D;" parent="qGfshK4993wqcHGZQ2OQ-46" vertex="1">
          <mxGeometry y="68" width="160" height="42" as="geometry" />
        </mxCell>
        <mxCell id="qGfshK4993wqcHGZQ2OQ-51" value="" style="endArrow=none;html=1;edgeStyle=orthogonalEdgeStyle;rounded=0;entryX=0.5;entryY=0;entryDx=0;entryDy=0;labelBackgroundColor=none;strokeColor=#788AA3;fontColor=default;" parent="1" target="qGfshK4993wqcHGZQ2OQ-46" edge="1">
          <mxGeometry relative="1" as="geometry">
            <mxPoint x="560" y="290" as="sourcePoint" />
            <mxPoint x="720" y="230" as="targetPoint" />
            <Array as="points">
              <mxPoint x="680" y="290" />
            </Array>
          </mxGeometry>
        </mxCell>
        <mxCell id="qGfshK4993wqcHGZQ2OQ-54" value="Lista de Juegos" style="swimlane;fontStyle=1;align=center;verticalAlign=top;childLayout=stackLayout;horizontal=1;startSize=26;horizontalStack=0;resizeParent=1;resizeParentMax=0;resizeLast=0;collapsible=1;marginBottom=0;whiteSpace=wrap;html=1;labelBackgroundColor=none;fillColor=#B2C9AB;strokeColor=#788AA3;fontColor=#46495D;" parent="1" vertex="1">
          <mxGeometry x="150" y="400" width="160" height="130" as="geometry" />
        </mxCell>
        <mxCell id="qGfshK4993wqcHGZQ2OQ-55" value="Juegos agreados" style="text;strokeColor=none;fillColor=none;align=left;verticalAlign=top;spacingLeft=4;spacingRight=4;overflow=hidden;rotatable=0;points=[[0,0.5],[1,0.5]];portConstraint=eastwest;whiteSpace=wrap;html=1;labelBackgroundColor=none;fontColor=#46495D;" parent="qGfshK4993wqcHGZQ2OQ-54" vertex="1">
          <mxGeometry y="26" width="160" height="26" as="geometry" />
        </mxCell>
        <mxCell id="qGfshK4993wqcHGZQ2OQ-56" value="" style="line;strokeWidth=1;fillColor=none;align=left;verticalAlign=middle;spacingTop=-1;spacingLeft=3;spacingRight=3;rotatable=0;labelPosition=right;points=[];portConstraint=eastwest;strokeColor=#788AA3;labelBackgroundColor=none;fontColor=#46495D;" parent="qGfshK4993wqcHGZQ2OQ-54" vertex="1">
          <mxGeometry y="52" width="160" height="8" as="geometry" />
        </mxCell>
        <mxCell id="qGfshK4993wqcHGZQ2OQ-57" value="estadoDelJuego()&lt;div&gt;trofeosGanados()&lt;/div&gt;&lt;div&gt;horasJugadas()&lt;/div&gt;&lt;div&gt;amigosAgredadosAlJuego()&lt;br&gt;&lt;/div&gt;&lt;div&gt;&lt;br&gt;&lt;/div&gt;&lt;div&gt;&lt;br&gt;&lt;/div&gt;" style="text;strokeColor=none;fillColor=none;align=left;verticalAlign=top;spacingLeft=4;spacingRight=4;overflow=hidden;rotatable=0;points=[[0,0.5],[1,0.5]];portConstraint=eastwest;whiteSpace=wrap;html=1;labelBackgroundColor=none;fontColor=#46495D;" parent="qGfshK4993wqcHGZQ2OQ-54" vertex="1">
          <mxGeometry y="60" width="160" height="70" as="geometry" />
        </mxCell>
        <mxCell id="qGfshK4993wqcHGZQ2OQ-61" value="" style="endArrow=none;html=1;rounded=0;exitX=0.554;exitY=0.007;exitDx=0;exitDy=0;exitPerimeter=0;entryX=0.491;entryY=1;entryDx=0;entryDy=0;entryPerimeter=0;labelBackgroundColor=none;strokeColor=#788AA3;fontColor=default;" parent="1" source="qGfshK4993wqcHGZQ2OQ-54" target="qGfshK4993wqcHGZQ2OQ-36" edge="1">
          <mxGeometry width="50" height="50" relative="1" as="geometry">
            <mxPoint x="300" y="370" as="sourcePoint" />
            <mxPoint x="240" y="340" as="targetPoint" />
          </mxGeometry>
        </mxCell>
        <mxCell id="qGfshK4993wqcHGZQ2OQ-64" value="EstadÃ­sticas" style="swimlane;fontStyle=1;align=center;verticalAlign=top;childLayout=stackLayout;horizontal=1;startSize=26;horizontalStack=0;resizeParent=1;resizeParentMax=0;resizeLast=0;collapsible=1;marginBottom=0;whiteSpace=wrap;html=1;labelBackgroundColor=none;fillColor=#B2C9AB;strokeColor=#788AA3;fontColor=#46495D;" parent="1" vertex="1">
          <mxGeometry x="390" y="520" width="160" height="130" as="geometry" />
        </mxCell>
        <mxCell id="qGfshK4993wqcHGZQ2OQ-65" value="juegosJugados" style="text;strokeColor=none;fillColor=none;align=left;verticalAlign=top;spacingLeft=4;spacingRight=4;overflow=hidden;rotatable=0;points=[[0,0.5],[1,0.5]];portConstraint=eastwest;whiteSpace=wrap;html=1;labelBackgroundColor=none;fontColor=#46495D;" parent="qGfshK4993wqcHGZQ2OQ-64" vertex="1">
          <mxGeometry y="26" width="160" height="26" as="geometry" />
        </mxCell>
        <mxCell id="qGfshK4993wqcHGZQ2OQ-66" value="" style="line;strokeWidth=1;fillColor=none;align=left;verticalAlign=middle;spacingTop=-1;spacingLeft=3;spacingRight=3;rotatable=0;labelPosition=right;points=[];portConstraint=eastwest;strokeColor=#788AA3;labelBackgroundColor=none;fontColor=#46495D;" parent="qGfshK4993wqcHGZQ2OQ-64" vertex="1">
          <mxGeometry y="52" width="160" height="8" as="geometry" />
        </mxCell>
        <mxCell id="qGfshK4993wqcHGZQ2OQ-67" value="horasJugadas()&lt;div&gt;trofeosGanados()&lt;/div&gt;&lt;div&gt;juegosCompletados()&lt;/div&gt;&lt;div&gt;juegosFavoritosPorTiempo()&lt;/div&gt;" style="text;strokeColor=none;fillColor=none;align=left;verticalAlign=top;spacingLeft=4;spacingRight=4;overflow=hidden;rotatable=0;points=[[0,0.5],[1,0.5]];portConstraint=eastwest;whiteSpace=wrap;html=1;labelBackgroundColor=none;fontColor=#46495D;" parent="qGfshK4993wqcHGZQ2OQ-64" vertex="1">
          <mxGeometry y="60" width="160" height="70" as="geometry" />
        </mxCell>
        <mxCell id="qGfshK4993wqcHGZQ2OQ-68" value="" style="endArrow=none;html=1;rounded=0;entryX=0.566;entryY=1;entryDx=0;entryDy=0;entryPerimeter=0;exitX=0.421;exitY=0.021;exitDx=0;exitDy=0;exitPerimeter=0;labelBackgroundColor=none;strokeColor=#788AA3;fontColor=default;" parent="1" target="qGfshK4993wqcHGZQ2OQ-28" edge="1">
          <mxGeometry width="50" height="50" relative="1" as="geometry">
            <mxPoint x="459.9999999999999" y="519.996" as="sourcePoint" />
            <mxPoint x="460.05999999999995" y="451.0299999999999" as="targetPoint" />
          </mxGeometry>
        </mxCell>
        <mxCell id="eOEwtgXV2Clq9Z4EroV--1" value="ValoraciÃ³n de productos" style="swimlane;fontStyle=1;align=center;verticalAlign=top;childLayout=stackLayout;horizontal=1;startSize=26;horizontalStack=0;resizeParent=1;resizeParentMax=0;resizeLast=0;collapsible=1;marginBottom=0;whiteSpace=wrap;html=1;labelBackgroundColor=none;fillColor=#B2C9AB;strokeColor=#788AA3;fontColor=#46495D;" vertex="1" parent="1">
          <mxGeometry x="310" y="810" width="160" height="140" as="geometry" />
        </mxCell>
        <mxCell id="eOEwtgXV2Clq9Z4EroV--2" value="Nombre&lt;div&gt;Usuario&lt;/div&gt;&lt;div&gt;ContraseÃ±a&lt;/div&gt;&lt;div&gt;Fecha&lt;/div&gt;" style="text;align=left;verticalAlign=top;spacingLeft=4;spacingRight=4;overflow=hidden;rotatable=0;points=[[0,0.5],[1,0.5]];portConstraint=eastwest;whiteSpace=wrap;html=1;labelBackgroundColor=none;fontColor=#46495D;" vertex="1" parent="eOEwtgXV2Clq9Z4EroV--1">
          <mxGeometry y="26" width="160" height="64" as="geometry" />
        </mxCell>
        <mxCell id="eOEwtgXV2Clq9Z4EroV--3" value="" style="line;strokeWidth=1;align=left;verticalAlign=middle;spacingTop=-1;spacingLeft=3;spacingRight=3;rotatable=0;labelPosition=right;points=[];portConstraint=eastwest;labelBackgroundColor=none;fillColor=#B2C9AB;strokeColor=#788AA3;fontColor=#46495D;" vertex="1" parent="eOEwtgXV2Clq9Z4EroV--1">
          <mxGeometry y="90" width="160" height="8" as="geometry" />
        </mxCell>
        <mxCell id="eOEwtgXV2Clq9Z4EroV--4" value="Perfil()&lt;div&gt;&lt;span style=&quot;background-color: transparent; color: light-dark(rgb(70, 73, 93), rgb(170, 173, 190));&quot;&gt;Lista de compras()&lt;/span&gt;&lt;/div&gt;" style="text;align=left;verticalAlign=top;spacingLeft=4;spacingRight=4;overflow=hidden;rotatable=0;points=[[0,0.5],[1,0.5]];portConstraint=eastwest;whiteSpace=wrap;html=1;labelBackgroundColor=none;fontColor=#46495D;" vertex="1" parent="eOEwtgXV2Clq9Z4EroV--1">
          <mxGeometry y="98" width="160" height="42" as="geometry" />
        </mxCell>
        <mxCell id="eOEwtgXV2Clq9Z4EroV--5" value="Problema 1" style="label;fontStyle=0;strokeColor=none;fillColor=none;align=left;verticalAlign=top;overflow=hidden;spacingLeft=28;spacingRight=4;rotatable=0;points=[[0,0.5],[1,0.5]];portConstraint=eastwest;imageWidth=16;imageHeight=16;whiteSpace=wrap;html=1;image=img/clipart/Gear_128x128.png;labelBackgroundColor=none;fontColor=#46495D;" vertex="1" parent="1">
          <mxGeometry x="20" y="40" width="120" height="26" as="geometry" />
        </mxCell>
        <mxCell id="eOEwtgXV2Clq9Z4EroV--6" value="Problema 3" style="label;fontStyle=0;strokeColor=none;fillColor=none;align=left;verticalAlign=top;overflow=hidden;spacingLeft=28;spacingRight=4;rotatable=0;points=[[0,0.5],[1,0.5]];portConstraint=eastwest;imageWidth=16;imageHeight=16;whiteSpace=wrap;html=1;image=img/clipart/Gear_128x128.png;labelBackgroundColor=none;fontColor=#46495D;" vertex="1" parent="1">
          <mxGeometry x="40" y="1400" width="120" height="26" as="geometry" />
        </mxCell>
        <mxCell id="eOEwtgXV2Clq9Z4EroV--7" value="Perfil" style="swimlane;fontStyle=1;align=center;verticalAlign=top;childLayout=stackLayout;horizontal=1;startSize=26;horizontalStack=0;resizeParent=1;resizeParentMax=0;resizeLast=0;collapsible=1;marginBottom=0;whiteSpace=wrap;html=1;strokeColor=#788AA3;fontColor=#46495D;fillColor=#B2C9AB;" vertex="1" parent="1">
          <mxGeometry x="110" y="920" width="180" height="130" as="geometry" />
        </mxCell>
        <mxCell id="eOEwtgXV2Clq9Z4EroV--8" value="Nombre&lt;div&gt;Registro&lt;/div&gt;&lt;div&gt;Pedidos&lt;/div&gt;" style="text;strokeColor=none;fillColor=none;align=left;verticalAlign=top;spacingLeft=4;spacingRight=4;overflow=hidden;rotatable=0;points=[[0,0.5],[1,0.5]];portConstraint=eastwest;whiteSpace=wrap;html=1;fontColor=#46495D;" vertex="1" parent="eOEwtgXV2Clq9Z4EroV--7">
          <mxGeometry y="26" width="180" height="54" as="geometry" />
        </mxCell>
        <mxCell id="eOEwtgXV2Clq9Z4EroV--9" value="" style="line;strokeWidth=1;fillColor=none;align=left;verticalAlign=middle;spacingTop=-1;spacingLeft=3;spacingRight=3;rotatable=0;labelPosition=right;points=[];portConstraint=eastwest;strokeColor=inherit;fontColor=#46495D;" vertex="1" parent="eOEwtgXV2Clq9Z4EroV--7">
          <mxGeometry y="80" width="180" height="8" as="geometry" />
        </mxCell>
        <mxCell id="eOEwtgXV2Clq9Z4EroV--10" value="Pedidos realizados()&lt;div&gt;ListaValoracionesRealizados()&lt;br&gt;&lt;div&gt;&lt;br&gt;&lt;/div&gt;&lt;/div&gt;" style="text;strokeColor=none;fillColor=none;align=left;verticalAlign=top;spacingLeft=4;spacingRight=4;overflow=hidden;rotatable=0;points=[[0,0.5],[1,0.5]];portConstraint=eastwest;whiteSpace=wrap;html=1;fontColor=#46495D;" vertex="1" parent="eOEwtgXV2Clq9Z4EroV--7">
          <mxGeometry y="88" width="180" height="42" as="geometry" />
        </mxCell>
        <mxCell id="eOEwtgXV2Clq9Z4EroV--11" value="Lista de compras" style="swimlane;fontStyle=1;align=center;verticalAlign=top;childLayout=stackLayout;horizontal=1;startSize=26;horizontalStack=0;resizeParent=1;resizeParentMax=0;resizeLast=0;collapsible=1;marginBottom=0;whiteSpace=wrap;html=1;strokeColor=#788AA3;fontColor=#46495D;fillColor=#B2C9AB;" vertex="1" parent="1">
          <mxGeometry x="440" y="988" width="200" height="180" as="geometry" />
        </mxCell>
        <mxCell id="eOEwtgXV2Clq9Z4EroV--12" value="Fecha de emisiÃ³n&lt;div&gt;Identificador&lt;/div&gt;&lt;div&gt;Fecha de llegada&lt;/div&gt;&lt;div&gt;Producto&lt;/div&gt;&lt;div&gt;Cantidad&lt;/div&gt;" style="text;strokeColor=none;fillColor=none;align=left;verticalAlign=top;spacingLeft=4;spacingRight=4;overflow=hidden;rotatable=0;points=[[0,0.5],[1,0.5]];portConstraint=eastwest;whiteSpace=wrap;html=1;fontColor=#46495D;" vertex="1" parent="eOEwtgXV2Clq9Z4EroV--11">
          <mxGeometry y="26" width="200" height="84" as="geometry" />
        </mxCell>
        <mxCell id="eOEwtgXV2Clq9Z4EroV--13" value="" style="line;strokeWidth=1;fillColor=none;align=left;verticalAlign=middle;spacingTop=-1;spacingLeft=3;spacingRight=3;rotatable=0;labelPosition=right;points=[];portConstraint=eastwest;strokeColor=inherit;fontColor=#46495D;" vertex="1" parent="eOEwtgXV2Clq9Z4EroV--11">
          <mxGeometry y="110" width="200" height="8" as="geometry" />
        </mxCell>
        <mxCell id="eOEwtgXV2Clq9Z4EroV--14" value="Producto()&lt;div&gt;Pedidos(fecha, fechaEntrega, cantidad, produ, ide)&lt;/div&gt;" style="text;strokeColor=none;fillColor=none;align=left;verticalAlign=top;spacingLeft=4;spacingRight=4;overflow=hidden;rotatable=0;points=[[0,0.5],[1,0.5]];portConstraint=eastwest;whiteSpace=wrap;html=1;fontColor=#46495D;" vertex="1" parent="eOEwtgXV2Clq9Z4EroV--11">
          <mxGeometry y="118" width="200" height="62" as="geometry" />
        </mxCell>
        <mxCell id="eOEwtgXV2Clq9Z4EroV--15" value="" style="shape=partialRectangle;whiteSpace=wrap;html=1;bottom=0;right=0;fillColor=none;labelBackgroundColor=none;strokeColor=#788AA3;fontColor=#46495D;" vertex="1" parent="1">
          <mxGeometry x="200" y="870" width="110" height="50" as="geometry" />
        </mxCell>
        <mxCell id="eOEwtgXV2Clq9Z4EroV--16" value="" style="shape=partialRectangle;whiteSpace=wrap;html=1;bottom=0;right=0;fillColor=none;labelBackgroundColor=none;strokeColor=#788AA3;fontColor=#46495D;rotation=90;" vertex="1" parent="1">
          <mxGeometry x="441.88" y="908.13" width="107.5" height="51.25" as="geometry" />
        </mxCell>
        <mxCell id="eOEwtgXV2Clq9Z4EroV--17" value="Producto" style="swimlane;fontStyle=1;align=center;verticalAlign=top;childLayout=stackLayout;horizontal=1;startSize=26;horizontalStack=0;resizeParent=1;resizeParentMax=0;resizeLast=0;collapsible=1;marginBottom=0;whiteSpace=wrap;html=1;strokeColor=#788AA3;fontColor=#46495D;fillColor=#B2C9AB;" vertex="1" parent="1">
          <mxGeometry x="225" y="1100" width="200" height="150" as="geometry" />
        </mxCell>
        <mxCell id="eOEwtgXV2Clq9Z4EroV--18" value="Identificador&lt;div&gt;Nombre&lt;/div&gt;" style="text;strokeColor=none;fillColor=none;align=left;verticalAlign=top;spacingLeft=4;spacingRight=4;overflow=hidden;rotatable=0;points=[[0,0.5],[1,0.5]];portConstraint=eastwest;whiteSpace=wrap;html=1;fontColor=#46495D;" vertex="1" parent="eOEwtgXV2Clq9Z4EroV--17">
          <mxGeometry y="26" width="200" height="34" as="geometry" />
        </mxCell>
        <mxCell id="eOEwtgXV2Clq9Z4EroV--19" value="" style="line;strokeWidth=1;fillColor=none;align=left;verticalAlign=middle;spacingTop=-1;spacingLeft=3;spacingRight=3;rotatable=0;labelPosition=right;points=[];portConstraint=eastwest;strokeColor=inherit;fontColor=#46495D;" vertex="1" parent="eOEwtgXV2Clq9Z4EroV--17">
          <mxGeometry y="60" width="200" height="8" as="geometry" />
        </mxCell>
        <mxCell id="eOEwtgXV2Clq9Z4EroV--20" value="ValoraciÃ³n(produ, comen, valorNumÃ©rica)&lt;div&gt;ModificarValoraciÃ³n(produ, comen)&lt;/div&gt;&lt;div&gt;EliminarValoraciÃ³n(produ, comen)&lt;/div&gt;&lt;div&gt;&lt;br&gt;&lt;/div&gt;" style="text;strokeColor=none;fillColor=none;align=left;verticalAlign=top;spacingLeft=4;spacingRight=4;overflow=hidden;rotatable=0;points=[[0,0.5],[1,0.5]];portConstraint=eastwest;whiteSpace=wrap;html=1;fontColor=#46495D;" vertex="1" parent="eOEwtgXV2Clq9Z4EroV--17">
          <mxGeometry y="68" width="200" height="82" as="geometry" />
        </mxCell>
        <mxCell id="eOEwtgXV2Clq9Z4EroV--21" value="" style="shape=partialRectangle;whiteSpace=wrap;html=1;bottom=0;right=0;fillColor=none;labelBackgroundColor=none;strokeColor=#788AA3;fontColor=#46495D;" vertex="1" parent="1">
          <mxGeometry x="320" y="1050" width="120" height="50" as="geometry" />
        </mxCell>
        <mxCell id="eOEwtgXV2Clq9Z4EroV--22" value="Problema 2" style="label;fontStyle=0;strokeColor=none;fillColor=none;align=left;verticalAlign=top;overflow=hidden;spacingLeft=28;spacingRight=4;rotatable=0;points=[[0,0.5],[1,0.5]];portConstraint=eastwest;imageWidth=16;imageHeight=16;whiteSpace=wrap;html=1;image=img/clipart/Gear_128x128.png;labelBackgroundColor=none;fontColor=#46495D;" vertex="1" parent="1">
          <mxGeometry x="30" y="820" width="120" height="26" as="geometry" />
        </mxCell>
        <mxCell id="eOEwtgXV2Clq9Z4EroV--23" value="Gestor de tareas" style="swimlane;fontStyle=1;align=center;verticalAlign=top;childLayout=stackLayout;horizontal=1;startSize=26;horizontalStack=0;resizeParent=1;resizeParentMax=0;resizeLast=0;collapsible=1;marginBottom=0;whiteSpace=wrap;html=1;strokeColor=#788AA3;fontColor=#46495D;fillColor=#B2C9AB;" vertex="1" parent="1">
          <mxGeometry x="280" y="1400" width="160" height="120" as="geometry" />
        </mxCell>
        <mxCell id="eOEwtgXV2Clq9Z4EroV--24" value="Miembros de grupo&lt;div&gt;Grupos&lt;/div&gt;" style="text;strokeColor=none;fillColor=none;align=left;verticalAlign=top;spacingLeft=4;spacingRight=4;overflow=hidden;rotatable=0;points=[[0,0.5],[1,0.5]];portConstraint=eastwest;whiteSpace=wrap;html=1;fontColor=#46495D;" vertex="1" parent="eOEwtgXV2Clq9Z4EroV--23">
          <mxGeometry y="26" width="160" height="44" as="geometry" />
        </mxCell>
        <mxCell id="eOEwtgXV2Clq9Z4EroV--25" value="" style="line;strokeWidth=1;fillColor=none;align=left;verticalAlign=middle;spacingTop=-1;spacingLeft=3;spacingRight=3;rotatable=0;labelPosition=right;points=[];portConstraint=eastwest;strokeColor=inherit;fontColor=#46495D;" vertex="1" parent="eOEwtgXV2Clq9Z4EroV--23">
          <mxGeometry y="70" width="160" height="8" as="geometry" />
        </mxCell>
        <mxCell id="eOEwtgXV2Clq9Z4EroV--26" value="listaDeGrupos()&lt;div&gt;verGrupo(grupo)&lt;br&gt;&lt;div&gt;&lt;br&gt;&lt;/div&gt;&lt;/div&gt;" style="text;strokeColor=none;fillColor=none;align=left;verticalAlign=top;spacingLeft=4;spacingRight=4;overflow=hidden;rotatable=0;points=[[0,0.5],[1,0.5]];portConstraint=eastwest;whiteSpace=wrap;html=1;fontColor=#46495D;" vertex="1" parent="eOEwtgXV2Clq9Z4EroV--23">
          <mxGeometry y="78" width="160" height="42" as="geometry" />
        </mxCell>
        <mxCell id="eOEwtgXV2Clq9Z4EroV--27" value="Lista de grupo" style="swimlane;fontStyle=1;align=center;verticalAlign=top;childLayout=stackLayout;horizontal=1;startSize=26;horizontalStack=0;resizeParent=1;resizeParentMax=0;resizeLast=0;collapsible=1;marginBottom=0;whiteSpace=wrap;html=1;strokeColor=#788AA3;fontColor=#46495D;fillColor=#B2C9AB;" vertex="1" parent="1">
          <mxGeometry x="90" y="1530" width="160" height="180" as="geometry" />
        </mxCell>
        <mxCell id="eOEwtgXV2Clq9Z4EroV--28" value="Grupo&lt;div&gt;Nombre de miembro&lt;/div&gt;&lt;div&gt;NÃºmero telefÃ³nico&lt;/div&gt;&lt;div&gt;Correo electrÃ³nico&lt;/div&gt;&lt;div&gt;&lt;br&gt;&lt;/div&gt;" style="text;strokeColor=none;fillColor=none;align=left;verticalAlign=top;spacingLeft=4;spacingRight=4;overflow=hidden;rotatable=0;points=[[0,0.5],[1,0.5]];portConstraint=eastwest;whiteSpace=wrap;html=1;fontColor=#46495D;" vertex="1" parent="eOEwtgXV2Clq9Z4EroV--27">
          <mxGeometry y="26" width="160" height="64" as="geometry" />
        </mxCell>
        <mxCell id="eOEwtgXV2Clq9Z4EroV--29" value="" style="line;strokeWidth=1;fillColor=none;align=left;verticalAlign=middle;spacingTop=-1;spacingLeft=3;spacingRight=3;rotatable=0;labelPosition=right;points=[];portConstraint=eastwest;strokeColor=inherit;fontColor=#46495D;" vertex="1" parent="eOEwtgXV2Clq9Z4EroV--27">
          <mxGeometry y="90" width="160" height="8" as="geometry" />
        </mxCell>
        <mxCell id="eOEwtgXV2Clq9Z4EroV--30" value="verMiembros(grupo)&lt;div&gt;modificarMiembro(grupo)&lt;/div&gt;&lt;div&gt;crearG&lt;span style=&quot;background-color: transparent; color: light-dark(rgb(70, 73, 93), rgb(170, 173, 190));&quot;&gt;rupo(nombre&lt;/span&gt;&lt;span style=&quot;background-color: transparent; color: light-dark(rgb(70, 73, 93), rgb(170, 173, 190));&quot;&gt;)&lt;/span&gt;&lt;/div&gt;&lt;div&gt;&lt;span style=&quot;background-color: transparent; color: light-dark(rgb(70, 73, 93), rgb(170, 173, 190));&quot;&gt;modificarGrupo(grupo)&lt;/span&gt;&lt;/div&gt;&lt;div&gt;&lt;div&gt;&lt;div&gt;eliminarMiembro(grupo)&lt;/div&gt;&lt;/div&gt;&lt;/div&gt;&lt;div&gt;&lt;br&gt;&lt;/div&gt;" style="text;strokeColor=none;fillColor=none;align=left;verticalAlign=top;spacingLeft=4;spacingRight=4;overflow=hidden;rotatable=0;points=[[0,0.5],[1,0.5]];portConstraint=eastwest;whiteSpace=wrap;html=1;fontColor=#46495D;" vertex="1" parent="eOEwtgXV2Clq9Z4EroV--27">
          <mxGeometry y="98" width="160" height="82" as="geometry" />
        </mxCell>
        <mxCell id="eOEwtgXV2Clq9Z4EroV--31" value="" style="shape=partialRectangle;whiteSpace=wrap;html=1;bottom=0;right=0;fillColor=none;labelBackgroundColor=none;strokeColor=#788AA3;fontColor=#46495D;" vertex="1" parent="1">
          <mxGeometry x="170" y="1470" width="110" height="60" as="geometry" />
        </mxCell>
        <mxCell id="eOEwtgXV2Clq9Z4EroV--32" value="Ver grupo" style="swimlane;fontStyle=1;align=center;verticalAlign=top;childLayout=stackLayout;horizontal=1;startSize=26;horizontalStack=0;resizeParent=1;resizeParentMax=0;resizeLast=0;collapsible=1;marginBottom=0;whiteSpace=wrap;html=1;strokeColor=#788AA3;fontColor=#46495D;fillColor=#B2C9AB;" vertex="1" parent="1">
          <mxGeometry x="280" y="1570" width="190" height="200" as="geometry" />
        </mxCell>
        <mxCell id="eOEwtgXV2Clq9Z4EroV--33" value="Nombre del proyecto&lt;div&gt;Curso&lt;/div&gt;&lt;div&gt;Prioridad&lt;/div&gt;&lt;div&gt;Fecha de entrega&lt;/div&gt;" style="text;strokeColor=none;fillColor=none;align=left;verticalAlign=top;spacingLeft=4;spacingRight=4;overflow=hidden;rotatable=0;points=[[0,0.5],[1,0.5]];portConstraint=eastwest;whiteSpace=wrap;html=1;fontColor=#46495D;" vertex="1" parent="eOEwtgXV2Clq9Z4EroV--32">
          <mxGeometry y="26" width="190" height="64" as="geometry" />
        </mxCell>
        <mxCell id="eOEwtgXV2Clq9Z4EroV--34" value="" style="line;strokeWidth=1;fillColor=none;align=left;verticalAlign=middle;spacingTop=-1;spacingLeft=3;spacingRight=3;rotatable=0;labelPosition=right;points=[];portConstraint=eastwest;strokeColor=inherit;fontColor=#46495D;" vertex="1" parent="eOEwtgXV2Clq9Z4EroV--32">
          <mxGeometry y="90" width="190" height="8" as="geometry" />
        </mxCell>
        <mxCell id="eOEwtgXV2Clq9Z4EroV--35" value="listaDeProyectos()&lt;div&gt;&lt;div&gt;&lt;span style=&quot;background-color: transparent; color: light-dark(rgb(70, 73, 93), rgb(170, 173, 190));&quot;&gt;modificarProyecto(nombre)&lt;/span&gt;&lt;/div&gt;&lt;div&gt;eliminarProyecto(nombre)&lt;/div&gt;&lt;div&gt;asignarTareas(nombre)&lt;/div&gt;&lt;div&gt;asignarTareasAMiembro(nombre)&lt;/div&gt;&lt;div&gt;modificarPrioridad(prioridad)&lt;/div&gt;&lt;div&gt;&lt;br&gt;&lt;/div&gt;&lt;/div&gt;" style="text;strokeColor=none;fillColor=none;align=left;verticalAlign=top;spacingLeft=4;spacingRight=4;overflow=hidden;rotatable=0;points=[[0,0.5],[1,0.5]];portConstraint=eastwest;whiteSpace=wrap;html=1;fontColor=#46495D;" vertex="1" parent="eOEwtgXV2Clq9Z4EroV--32">
          <mxGeometry y="98" width="190" height="102" as="geometry" />
        </mxCell>
        <mxCell id="eOEwtgXV2Clq9Z4EroV--37" value="" style="endArrow=none;html=1;rounded=0;exitX=0.503;exitY=0;exitDx=0;exitDy=0;labelBackgroundColor=none;strokeColor=#788AA3;fontColor=default;entryX=0.598;entryY=1.006;entryDx=0;entryDy=0;entryPerimeter=0;exitPerimeter=0;" edge="1" parent="1" source="eOEwtgXV2Clq9Z4EroV--32" target="eOEwtgXV2Clq9Z4EroV--26">
          <mxGeometry width="50" height="50" relative="1" as="geometry">
            <mxPoint x="375.7" y="1568.9100000000003" as="sourcePoint" />
            <mxPoint x="374.3" y="1520.0020000000002" as="targetPoint" />
          </mxGeometry>
        </mxCell>
        <mxCell id="eOEwtgXV2Clq9Z4EroV--38" value="" style="shape=partialRectangle;whiteSpace=wrap;html=1;bottom=0;right=0;fillColor=none;labelBackgroundColor=none;strokeColor=#788AA3;fontColor=#46495D;rotation=90;" vertex="1" parent="1">
          <mxGeometry x="430.09" y="1693.06" width="128.61" height="48.42" as="geometry" />
        </mxCell>
        <mxCell id="eOEwtgXV2Clq9Z4EroV--39" value="Proyecto" style="swimlane;fontStyle=1;align=center;verticalAlign=top;childLayout=stackLayout;horizontal=1;startSize=26;horizontalStack=0;resizeParent=1;resizeParentMax=0;resizeLast=0;collapsible=1;marginBottom=0;whiteSpace=wrap;html=1;strokeColor=#788AA3;fontColor=#46495D;fillColor=#B2C9AB;" vertex="1" parent="1">
          <mxGeometry x="437.03" y="1780" width="160" height="140" as="geometry" />
        </mxCell>
        <mxCell id="eOEwtgXV2Clq9Z4EroV--40" value="Nombre&lt;div&gt;DescripciÃ³n&lt;/div&gt;&lt;div&gt;Miembro asignado&lt;/div&gt;&lt;div&gt;Estado&lt;/div&gt;" style="text;strokeColor=none;fillColor=none;align=left;verticalAlign=top;spacingLeft=4;spacingRight=4;overflow=hidden;rotatable=0;points=[[0,0.5],[1,0.5]];portConstraint=eastwest;whiteSpace=wrap;html=1;fontColor=#46495D;" vertex="1" parent="eOEwtgXV2Clq9Z4EroV--39">
          <mxGeometry y="26" width="160" height="64" as="geometry" />
        </mxCell>
        <mxCell id="eOEwtgXV2Clq9Z4EroV--41" value="" style="line;strokeWidth=1;fillColor=none;align=left;verticalAlign=middle;spacingTop=-1;spacingLeft=3;spacingRight=3;rotatable=0;labelPosition=right;points=[];portConstraint=eastwest;strokeColor=inherit;fontColor=#46495D;" vertex="1" parent="eOEwtgXV2Clq9Z4EroV--39">
          <mxGeometry y="90" width="160" height="8" as="geometry" />
        </mxCell>
        <mxCell id="eOEwtgXV2Clq9Z4EroV--42" value="verListaDeTareas()&lt;div&gt;modificarEstado(nombre)&lt;br&gt;&lt;div&gt;&lt;br&gt;&lt;/div&gt;&lt;/div&gt;" style="text;strokeColor=none;fillColor=none;align=left;verticalAlign=top;spacingLeft=4;spacingRight=4;overflow=hidden;rotatable=0;points=[[0,0.5],[1,0.5]];portConstraint=eastwest;whiteSpace=wrap;html=1;fontColor=#46495D;" vertex="1" parent="eOEwtgXV2Clq9Z4EroV--39">
          <mxGeometry y="98" width="160" height="42" as="geometry" />
        </mxCell>
        <mxCell id="eOEwtgXV2Clq9Z4EroV--48" value="Problema 4" style="label;fontStyle=0;strokeColor=none;fillColor=none;align=left;verticalAlign=top;overflow=hidden;spacingLeft=28;spacingRight=4;rotatable=0;points=[[0,0.5],[1,0.5]];portConstraint=eastwest;imageWidth=16;imageHeight=16;whiteSpace=wrap;html=1;image=img/clipart/Gear_128x128.png;labelBackgroundColor=none;fontColor=#46495D;" vertex="1" parent="1">
          <mxGeometry x="40" y="2010" width="120" height="26" as="geometry" />
        </mxCell>
        <mxCell id="eOEwtgXV2Clq9Z4EroV--49" value="Lista" style="swimlane;fontStyle=1;align=center;verticalAlign=top;childLayout=stackLayout;horizontal=1;startSize=26;horizontalStack=0;resizeParent=1;resizeParentMax=0;resizeLast=0;collapsible=1;marginBottom=0;whiteSpace=wrap;html=1;strokeColor=#788AA3;fontColor=#46495D;fillColor=#B2C9AB;" vertex="1" parent="1">
          <mxGeometry x="250" y="2010" width="200" height="130" as="geometry" />
        </mxCell>
        <mxCell id="eOEwtgXV2Clq9Z4EroV--50" value="DirecciÃ³n de memoria&lt;div&gt;DirecciÃ³n de estado&lt;/div&gt;" style="text;strokeColor=none;fillColor=none;align=left;verticalAlign=top;spacingLeft=4;spacingRight=4;overflow=hidden;rotatable=0;points=[[0,0.5],[1,0.5]];portConstraint=eastwest;whiteSpace=wrap;html=1;fontColor=#46495D;" vertex="1" parent="eOEwtgXV2Clq9Z4EroV--49">
          <mxGeometry y="26" width="200" height="54" as="geometry" />
        </mxCell>
        <mxCell id="eOEwtgXV2Clq9Z4EroV--51" value="" style="line;strokeWidth=1;fillColor=none;align=left;verticalAlign=middle;spacingTop=-1;spacingLeft=3;spacingRight=3;rotatable=0;labelPosition=right;points=[];portConstraint=eastwest;strokeColor=inherit;fontColor=#46495D;" vertex="1" parent="eOEwtgXV2Clq9Z4EroV--49">
          <mxGeometry y="80" width="200" height="8" as="geometry" />
        </mxCell>
        <mxCell id="eOEwtgXV2Clq9Z4EroV--52" value="obtenerDato(direcciÃ³nDeMemoria)&lt;div&gt;modificarDato(direcciÃ³nDeEstado)&lt;/div&gt;" style="text;strokeColor=none;fillColor=none;align=left;verticalAlign=top;spacingLeft=4;spacingRight=4;overflow=hidden;rotatable=0;points=[[0,0.5],[1,0.5]];portConstraint=eastwest;whiteSpace=wrap;html=1;fontColor=#46495D;" vertex="1" parent="eOEwtgXV2Clq9Z4EroV--49">
          <mxGeometry y="88" width="200" height="42" as="geometry" />
        </mxCell>
        <mxCell id="eOEwtgXV2Clq9Z4EroV--54" value="" style="line;strokeWidth=1;fillColor=none;align=left;verticalAlign=middle;spacingTop=-1;spacingLeft=3;spacingRight=3;rotatable=0;labelPosition=right;points=[];portConstraint=eastwest;strokeColor=inherit;fontColor=#46495D;" vertex="1" parent="1">
          <mxGeometry x="10" y="1950" width="830" height="8" as="geometry" />
        </mxCell>
        <mxCell id="eOEwtgXV2Clq9Z4EroV--55" value="" style="line;strokeWidth=1;fillColor=none;align=left;verticalAlign=middle;spacingTop=-1;spacingLeft=3;spacingRight=3;rotatable=0;labelPosition=right;points=[];portConstraint=eastwest;strokeColor=inherit;fontColor=#46495D;" vertex="1" parent="1">
          <mxGeometry x="10" y="1350" width="830" height="8" as="geometry" />
        </mxCell>
        <mxCell id="eOEwtgXV2Clq9Z4EroV--56" value="" style="line;strokeWidth=1;fillColor=none;align=left;verticalAlign=middle;spacingTop=-1;spacingLeft=3;spacingRight=3;rotatable=0;labelPosition=right;points=[];portConstraint=eastwest;strokeColor=inherit;fontColor=#46495D;" vertex="1" parent="1">
          <mxGeometry y="720" width="830" height="8" as="geometry" />
        </mxCell>
      </root>
    </mxGraphModel>
  </diagram>
</mxfile>
